<svg width="50" height="51" viewBox="0 0 50 51" fill="none" xmlns="http://www.w3.org/2000/svg">
<path d="M11.4583 19.4014H7.29166" stroke="#ED9902" stroke-width="3.125" stroke-linecap="round"/>
<path d="M10.4167 31.9014L8.33334 31.9014" stroke="#ED9902" stroke-width="3.125" stroke-linecap="round"/>
<path d="M8.33333 25.6514H4.16667" stroke="#ED9902" stroke-width="3.125" stroke-linecap="round"/>
<path d="M25.0852 27.2449C25.9482 27.2449 26.6477 26.5453 26.6477 25.6824C26.6477 24.8194 25.9482 24.1199 25.0852 24.1199V27.2449ZM19.3083 27.2449H25.0852V24.1199H19.3083V27.2449Z" fill="#ED9902"/>
<path d="M42.7899 20.3948L24.6601 10.6692C20.2974 8.32887 15.4555 12.7653 16.9401 17.7428L19.1303 25.0859C19.2464 25.4751 19.2462 25.8898 19.1297 26.2789L16.9516 33.5537C15.4622 38.5284 20.2971 42.9703 24.6622 40.6376L42.7824 30.9541C46.8468 28.7821 46.8513 22.5734 42.7899 20.3948Z" stroke="white" stroke-width="3.125"/>
</svg>
